<svg xmlns="http://www.w3.org/2000/svg" version="1.1" xmlns:xlink="http://www.w3.org/1999/xlink" width="181" height="182"><svg width="181" height="182" viewBox="0 0 181 182" fill="none" xmlns="http://www.w3.org/2000/svg">
<path d="M117.49 0.772396C118.668 -0.291902 120.486 -0.256214 121.621 0.878841L180.121 59.3788C180.979 60.2368 181.236 61.5273 180.771 62.6484C180.307 63.7692 179.213 64.4999 178 64.4999H166V94.4999H177C178.657 94.4999 180 95.8431 180 97.4999V179C180 180.657 178.657 182 177 182H16.4999C14.8431 182 13.4999 180.657 13.4999 179V122.5H2.99991C1.78667 122.5 0.692865 121.769 0.228431 120.648C-0.235912 119.527 0.0208272 118.237 0.878821 117.379L117.379 0.878841L117.49 0.772396ZM166 176H174V173.5H166V176ZM107 135H127C128.657 135 130 136.343 130 138V161.5C130 163.157 128.657 164.5 127 164.5H107V176H160V164.5H139.5C137.843 164.5 136.5 163.157 136.5 161.5V138C136.5 136.343 137.843 135 139.5 135H160V123H107V135ZM80.4999 119.5C80.4999 120.433 80.066 121.312 79.3261 121.88C78.5862 122.448 77.6244 122.639 76.7235 122.397L68.1064 120.089H51.3544L41.703 122.416C40.8093 122.631 39.8658 122.425 39.1435 121.856C38.4214 121.288 37.9999 120.419 37.9999 119.5V102.242L19.4999 120.742V135H35.9999C37.6568 135 38.9999 136.343 38.9999 138V161.5C38.9999 163.157 37.6568 164.5 35.9999 164.5H19.4999V176H44.9999V151C44.9999 149.343 46.3431 148 47.9999 148H71.4999C73.1568 148 74.4999 149.343 74.4999 151V176H101V164.5H83.9999C82.3431 164.5 80.9999 163.157 80.9999 161.5V138C80.9999 136.343 82.3431 135 83.9999 135H101V121.242L80.4999 100.742V119.5ZM166 167.5H174V164.5H166V167.5ZM166 158.5H174V155.5H166V158.5ZM142.5 158.5H160V141H142.5V158.5ZM107 158.5H124V141H107V158.5ZM86.9999 158.5H101V141H86.9999V158.5ZM50.9999 158.5H68.4999V154H50.9999V158.5ZM19.4999 158.5H32.9999V141H19.4999V158.5ZM166 149.5H174V147.5H166V149.5ZM166 138V141.5H174V138H166ZM71.4999 135C73.1568 135 74.4999 136.343 74.4999 138C74.4999 139.657 73.1568 141 71.4999 141H47.9999C46.3431 141 44.9999 139.657 44.9999 138C44.9999 136.343 46.3431 135 47.9999 135H71.4999ZM166 132H174V130H166V132ZM166 124H174V123H166V124ZM166 117H174V100.5H166V117ZM151.5 117H160V100.5H151.5V117ZM137 117H145.5V100.5H137V117ZM121.5 117H131V100.5H121.5V117ZM10.2421 116.5H15.2577L57.8788 73.8788L57.9902 73.7724C59.1678 72.7081 60.986 72.7438 62.121 73.8788L105.242 117H110.258L59.9999 66.7421L10.2421 116.5ZM43.9999 115.69L47.9999 114.726V101.959L43.9999 101.158V115.69ZM71.4999 101.661V114.786L74.4999 115.59V100.661L71.4999 101.661ZM53.9999 114.089H65.4999V102.5H53.9999V114.089ZM115.5 113.758V100.5H102.242L115.5 113.758ZM145.5 94.4999H160V75.9999H145.5V94.4999ZM77.9999 63.7421V69.9999H94.9999C96.6568 69.9999 97.9999 71.3431 97.9999 72.9999V94.4999H104V85.4999C104 83.8431 105.343 82.4999 107 82.4999H130C131.657 82.4999 133 83.8431 133 85.4999V94.4999H139.5V72.9999C139.5 71.3431 140.843 69.9999 142.5 69.9999H160V62.7421L119.5 22.2421L77.9999 63.7421ZM110 94.4999H127V88.4999H110V94.4999ZM45.0009 95.2411L51.2948 96.4999H68.0146L74.1962 94.4384L59.9999 80.2421L45.0009 95.2411ZM91.9999 90.2578V75.9999H77.7421L91.9999 90.2578ZM130 69.9999C131.657 69.9999 133 71.3431 133 72.9999C133 74.6568 131.657 75.9999 130 75.9999H107C105.343 75.9999 104 74.6568 104 72.9999C104 71.3431 105.343 69.9999 107 69.9999H130ZM71.9999 70.2578V65.4999H67.2421L71.9999 70.2578ZM67.2421 59.4999H73.7577L117.379 15.8788L117.49 15.7724C118.668 14.7081 120.486 14.7438 121.621 15.8788L164.242 58.4999H170.758L119.5 7.24212L67.2421 59.4999ZM50.9999 176H68.4999V164.5H50.9999V176Z" fill="url(#paint0_linear_1603_612)"></path>
<path d="M125 46.9999C125 43.6862 122.314 40.9999 119 40.9999C115.686 40.9999 113 43.6862 113 46.9999C113 50.3136 115.686 52.9999 119 52.9999C122.314 52.9999 125 50.3136 125 46.9999ZM131 46.9999C131 53.6274 125.627 58.9999 119 58.9999C112.372 58.9999 107 53.6274 107 46.9999C107 40.3725 112.372 34.9999 119 34.9999C125.627 34.9999 131 40.3725 131 46.9999Z" fill="url(#paint1_linear_1603_612)"></path>
<path d="M139 49.9999C139 51.6568 137.657 52.9999 136 52.9999C134.343 52.9999 133 51.6568 133 49.9999C133 48.3431 134.343 46.9999 136 46.9999C137.657 46.9999 139 48.3431 139 49.9999Z" fill="url(#paint2_linear_1603_612)"></path>
<path d="M104 49.9999C104 51.6568 102.657 52.9999 101 52.9999C99.3431 52.9999 97.9999 51.6568 97.9999 49.9999C97.9999 48.3431 99.3431 46.9999 101 46.9999C102.657 46.9999 104 48.3431 104 49.9999Z" fill="url(#paint3_linear_1603_612)"></path>
<defs>
<linearGradient id="SvgjsLinearGradient1587" x1="19.6514" y1="164.937" x2="195.494" y2="163.936" gradientUnits="userSpaceOnUse">
<stop offset="0.275" stop-color="#F4E683"></stop>
</linearGradient>
<linearGradient id="SvgjsLinearGradient1586" x1="19.6514" y1="164.937" x2="195.494" y2="163.936" gradientUnits="userSpaceOnUse">
<stop offset="0.275" stop-color="#F4E683"></stop>
</linearGradient>
<linearGradient id="SvgjsLinearGradient1585" x1="19.6514" y1="164.937" x2="195.494" y2="163.936" gradientUnits="userSpaceOnUse">
<stop offset="0.275" stop-color="#F4E683"></stop>
</linearGradient>
<linearGradient id="SvgjsLinearGradient1584" x1="19.6514" y1="164.937" x2="195.494" y2="163.936" gradientUnits="userSpaceOnUse">
<stop offset="0.275" stop-color="#F4E683"></stop>
</linearGradient>
</defs>
</svg><style>@media (prefers-color-scheme: light) { :root { filter: contrast(1) brightness(0.1); } }
@media (prefers-color-scheme: dark) { :root { filter: none; } }
</style></svg>