<svg width="56" height="44" viewBox="0 0 56 44" fill="none" xmlns="http://www.w3.org/2000/svg">
<path fill-rule="evenodd" clip-rule="evenodd" d="M48.7495 43.793H38.6872C34.8136 43.793 31.6464 40.573 31.6464 36.6348C31.6464 21.9061 27.946 5.72728 45.7008 1.10806C53.7442 -0.981474 55.8405 8.02531 47.2867 8.64614C42.0687 9.02606 41.0479 12.4546 40.8884 17.6344H48.9591C52.8328 17.6344 56 20.8544 56 24.7926V36.417C56 40.4757 52.7371 43.793 48.7495 43.793ZM17.4234 43.793H7.36115C3.48754 43.793 0.320292 40.573 0.320292 36.6348C0.320292 21.9061 -3.38014 5.72728 14.3747 1.10806C22.4226 -0.986107 24.519 8.02067 15.9606 8.64614C10.7426 9.02606 9.72177 12.4546 9.56227 17.6344H17.6376C21.5112 17.6344 24.6785 20.8544 24.6785 24.7926V36.417C24.6739 40.4757 21.411 43.793 17.4234 43.793Z" fill="#f0dc6f"/>
</svg>
