<svg width="564" height="182" viewBox="0 0 564 182" fill="none" xmlns="http://www.w3.org/2000/svg">
<g clip-path="url(#clip0_1604_463)">
<path d="M117.49 0.772396C118.668 -0.291902 120.486 -0.256214 121.621 0.878841L180.121 59.3788C180.979 60.2368 181.236 61.5273 180.771 62.6484C180.307 63.7692 179.213 64.4999 178 64.4999H166V94.4999H177C178.657 94.4999 180 95.8431 180 97.4999V179C180 180.657 178.657 182 177 182H16.4999C14.8431 182 13.4999 180.657 13.4999 179V122.5H2.99991C1.78667 122.5 0.692865 121.769 0.228431 120.648C-0.235912 119.527 0.0208269 118.237 0.878821 117.379L117.379 0.878841L117.49 0.772396ZM166 176H174V173.5H166V176ZM107 135H127C128.657 135 130 136.343 130 138V161.5C130 163.157 128.657 164.5 127 164.5H107V176H160V164.5H139.5C137.843 164.5 136.5 163.157 136.5 161.5V138C136.5 136.343 137.843 135 139.5 135H160V123H107V135ZM80.4999 119.5C80.4999 120.433 80.066 121.312 79.3261 121.88C78.5862 122.448 77.6244 122.639 76.7235 122.397L68.1064 120.089H51.3544L41.703 122.416C40.8093 122.631 39.8658 122.425 39.1435 121.856C38.4214 121.288 37.9999 120.419 37.9999 119.5V102.242L19.4999 120.742V135H35.9999C37.6568 135 38.9999 136.343 38.9999 138V161.5C38.9999 163.157 37.6568 164.5 35.9999 164.5H19.4999V176H44.9999V151C44.9999 149.343 46.3431 148 47.9999 148H71.4999C73.1568 148 74.4999 149.343 74.4999 151V176H101V164.5H83.9999C82.3431 164.5 80.9999 163.157 80.9999 161.5V138C80.9999 136.343 82.3431 135 83.9999 135H101V121.242L80.4999 100.742V119.5ZM166 167.5H174V164.5H166V167.5ZM166 158.5H174V155.5H166V158.5ZM142.5 158.5H160V141H142.5V158.5ZM107 158.5H124V141H107V158.5ZM86.9999 158.5H101V141H86.9999V158.5ZM50.9999 158.5H68.4999V154H50.9999V158.5ZM19.4999 158.5H32.9999V141H19.4999V158.5ZM166 149.5H174V147.5H166V149.5ZM166 138V141.5H174V138H166ZM71.4999 135C73.1568 135 74.4999 136.343 74.4999 138C74.4999 139.657 73.1568 141 71.4999 141H47.9999C46.3431 141 44.9999 139.657 44.9999 138C44.9999 136.343 46.3431 135 47.9999 135H71.4999ZM166 132H174V130H166V132ZM166 124H174V123H166V124ZM166 117H174V100.5H166V117ZM151.5 117H160V100.5H151.5V117ZM137 117H145.5V100.5H137V117ZM121.5 117H131V100.5H121.5V117ZM10.2421 116.5H15.2577L57.8788 73.8788L57.9902 73.7724C59.1678 72.7081 60.986 72.7438 62.121 73.8788L105.242 117H110.258L59.9999 66.7421L10.2421 116.5ZM43.9999 115.69L47.9999 114.726V101.959L43.9999 101.158V115.69ZM71.4999 101.661V114.786L74.4999 115.59V100.661L71.4999 101.661ZM53.9999 114.089H65.4999V102.5H53.9999V114.089ZM115.5 113.758V100.5H102.242L115.5 113.758ZM145.5 94.4999H160V75.9999H145.5V94.4999ZM77.9999 63.7421V69.9999H94.9999C96.6568 69.9999 97.9999 71.3431 97.9999 72.9999V94.4999H104V85.4999C104 83.8431 105.343 82.4999 107 82.4999H130C131.657 82.4999 133 83.8431 133 85.4999V94.4999H139.5V72.9999C139.5 71.3431 140.843 69.9999 142.5 69.9999H160V62.7421L119.5 22.2421L77.9999 63.7421ZM110 94.4999H127V88.4999H110V94.4999ZM45.0009 95.2411L51.2948 96.4999H68.0146L74.1962 94.4384L59.9999 80.2421L45.0009 95.2411ZM91.9999 90.2578V75.9999H77.7421L91.9999 90.2578ZM130 69.9999C131.657 69.9999 133 71.3431 133 72.9999C133 74.6568 131.657 75.9999 130 75.9999H107C105.343 75.9999 104 74.6568 104 72.9999C104 71.3431 105.343 69.9999 107 69.9999H130ZM71.9999 70.2578V65.4999H67.2421L71.9999 70.2578ZM67.2421 59.4999H73.7577L117.379 15.8788L117.49 15.7724C118.668 14.7081 120.486 14.7438 121.621 15.8788L164.242 58.4999H170.758L119.5 7.24212L67.2421 59.4999ZM50.9999 176H68.4999V164.5H50.9999V176Z" fill="url(#paint0_linear_1604_463)"/>
<path d="M125 46.9999C125 43.6862 122.314 40.9999 119 40.9999C115.686 40.9999 113 43.6862 113 46.9999C113 50.3136 115.686 52.9999 119 52.9999C122.314 52.9999 125 50.3136 125 46.9999ZM131 46.9999C131 53.6274 125.627 58.9999 119 58.9999C112.372 58.9999 107 53.6274 107 46.9999C107 40.3725 112.372 34.9999 119 34.9999C125.627 34.9999 131 40.3725 131 46.9999Z" fill="url(#paint1_linear_1604_463)"/>
<path d="M139 49.9999C139 51.6568 137.657 52.9999 136 52.9999C134.343 52.9999 133 51.6568 133 49.9999C133 48.3431 134.343 46.9999 136 46.9999C137.657 46.9999 139 48.3431 139 49.9999Z" fill="url(#paint2_linear_1604_463)"/>
<path d="M104 49.9999C104 51.6568 102.657 52.9999 101 52.9999C99.3432 52.9999 98 51.6568 98 49.9999C98 48.3431 99.3432 46.9999 101 46.9999C102.657 46.9999 104 48.3431 104 49.9999Z" fill="url(#paint3_linear_1604_463)"/>
</g>
<path d="M390.531 108.219V92.0938C390.531 90.8854 390.312 89.8438 389.875 88.9688C389.438 88.0938 388.771 87.4167 387.875 86.9375C387 86.4583 385.896 86.2188 384.562 86.2188C383.333 86.2188 382.271 86.4271 381.375 86.8438C380.479 87.2604 379.781 87.8229 379.281 88.5312C378.781 89.2396 378.531 90.0417 378.531 90.9375H371.031C371.031 89.6042 371.354 88.3125 372 87.0625C372.646 85.8125 373.583 84.6979 374.812 83.7188C376.042 82.7396 377.51 81.9688 379.219 81.4062C380.927 80.8438 382.844 80.5625 384.969 80.5625C387.51 80.5625 389.76 80.9896 391.719 81.8438C393.698 82.6979 395.25 83.9896 396.375 85.7188C397.521 87.4271 398.094 89.5729 398.094 92.1562V107.188C398.094 108.729 398.198 110.115 398.406 111.344C398.635 112.552 398.958 113.604 399.375 114.5V115H391.656C391.302 114.188 391.021 113.156 390.812 111.906C390.625 110.635 390.531 109.406 390.531 108.219ZM391.625 94.4375L391.688 99.0938H386.281C384.885 99.0938 383.656 99.2292 382.594 99.5C381.531 99.75 380.646 100.125 379.938 100.625C379.229 101.125 378.698 101.729 378.344 102.438C377.99 103.146 377.812 103.948 377.812 104.844C377.812 105.74 378.021 106.562 378.438 107.312C378.854 108.042 379.458 108.615 380.25 109.031C381.062 109.448 382.042 109.656 383.188 109.656C384.729 109.656 386.073 109.344 387.219 108.719C388.385 108.073 389.302 107.292 389.969 106.375C390.635 105.438 390.99 104.552 391.031 103.719L393.469 107.062C393.219 107.917 392.792 108.833 392.188 109.812C391.583 110.792 390.792 111.729 389.812 112.625C388.854 113.5 387.698 114.219 386.344 114.781C385.01 115.344 383.469 115.625 381.719 115.625C379.51 115.625 377.542 115.188 375.812 114.312C374.083 113.417 372.729 112.219 371.75 110.719C370.771 109.198 370.281 107.479 370.281 105.562C370.281 103.771 370.615 102.188 371.281 100.812C371.969 99.4167 372.969 98.25 374.281 97.3125C375.615 96.375 377.24 95.6667 379.156 95.1875C381.073 94.6875 383.26 94.4375 385.719 94.4375H391.625Z" fill="url(#paint4_linear_1604_463)"/>
<path d="M333.156 107.5L340.969 81.1875H345.781L344.469 89.0625L336.594 115H332.281L333.156 107.5ZM328.562 81.1875L334.656 107.625L335.156 115H330.344L321.188 81.1875H328.562ZM353.094 107.312L359 81.1875H366.344L357.219 115H352.406L353.094 107.312ZM346.594 81.1875L354.312 107.188L355.281 115H350.969L343 89.0312L341.688 81.1875H346.594Z" fill="url(#paint5_linear_1604_463)"/>
<path d="M308.531 108.219V92.0938C308.531 90.8854 308.312 89.8438 307.875 88.9688C307.438 88.0938 306.771 87.4167 305.875 86.9375C305 86.4583 303.896 86.2188 302.562 86.2188C301.333 86.2188 300.271 86.4271 299.375 86.8438C298.479 87.2604 297.781 87.8229 297.281 88.5312C296.781 89.2396 296.531 90.0417 296.531 90.9375H289.031C289.031 89.6042 289.354 88.3125 290 87.0625C290.646 85.8125 291.583 84.6979 292.812 83.7188C294.042 82.7396 295.51 81.9688 297.219 81.4062C298.927 80.8438 300.844 80.5625 302.969 80.5625C305.51 80.5625 307.76 80.9896 309.719 81.8438C311.698 82.6979 313.25 83.9896 314.375 85.7188C315.521 87.4271 316.094 89.5729 316.094 92.1562V107.188C316.094 108.729 316.198 110.115 316.406 111.344C316.635 112.552 316.958 113.604 317.375 114.5V115H309.656C309.302 114.188 309.021 113.156 308.812 111.906C308.625 110.635 308.531 109.406 308.531 108.219ZM309.625 94.4375L309.688 99.0938H304.281C302.885 99.0938 301.656 99.2292 300.594 99.5C299.531 99.75 298.646 100.125 297.938 100.625C297.229 101.125 296.698 101.729 296.344 102.438C295.99 103.146 295.812 103.948 295.812 104.844C295.812 105.74 296.021 106.562 296.438 107.312C296.854 108.042 297.458 108.615 298.25 109.031C299.062 109.448 300.042 109.656 301.188 109.656C302.729 109.656 304.073 109.344 305.219 108.719C306.385 108.073 307.302 107.292 307.969 106.375C308.635 105.438 308.99 104.552 309.031 103.719L311.469 107.062C311.219 107.917 310.792 108.833 310.188 109.812C309.583 110.792 308.792 111.729 307.812 112.625C306.854 113.5 305.698 114.219 304.344 114.781C303.01 115.344 301.469 115.625 299.719 115.625C297.51 115.625 295.542 115.188 293.812 114.312C292.083 113.417 290.729 112.219 289.75 110.719C288.771 109.198 288.281 107.479 288.281 105.562C288.281 103.771 288.615 102.188 289.281 100.812C289.969 99.4167 290.969 98.25 292.281 97.3125C293.615 96.375 295.24 95.6667 297.156 95.1875C299.073 94.6875 301.26 94.4375 303.719 94.4375H309.625Z" fill="url(#paint6_linear_1604_463)"/>
<path d="M283.656 81.1875V86.6875H264.594V81.1875H283.656ZM270.094 72.9062H277.625V105.656C277.625 106.698 277.771 107.5 278.062 108.062C278.375 108.604 278.802 108.969 279.344 109.156C279.885 109.344 280.521 109.438 281.25 109.438C281.771 109.438 282.271 109.406 282.75 109.344C283.229 109.281 283.615 109.219 283.906 109.156L283.938 114.906C283.312 115.094 282.583 115.26 281.75 115.406C280.938 115.552 280 115.625 278.938 115.625C277.208 115.625 275.677 115.323 274.344 114.719C273.01 114.094 271.969 113.083 271.219 111.688C270.469 110.292 270.094 108.438 270.094 106.125V72.9062Z" fill="url(#paint7_linear_1604_463)"/>
<path d="M262.344 81.1875V86.6875H243.281V81.1875H262.344ZM248.781 72.9062H256.312V105.656C256.312 106.698 256.458 107.5 256.75 108.062C257.062 108.604 257.49 108.969 258.031 109.156C258.573 109.344 259.208 109.438 259.938 109.438C260.458 109.438 260.958 109.406 261.438 109.344C261.917 109.281 262.302 109.219 262.594 109.156L262.625 114.906C262 115.094 261.271 115.26 260.438 115.406C259.625 115.552 258.688 115.625 257.625 115.625C255.896 115.625 254.365 115.323 253.031 114.719C251.698 114.094 250.656 113.083 249.906 111.688C249.156 110.292 248.781 108.438 248.781 106.125V72.9062Z" fill="url(#paint8_linear_1604_463)"/>
<path d="M239.75 91V93.5C239.75 96.9375 239.302 100.021 238.406 102.75C237.51 105.479 236.229 107.802 234.562 109.719C232.917 111.635 230.938 113.104 228.625 114.125C226.312 115.125 223.75 115.625 220.938 115.625C218.146 115.625 215.594 115.125 213.281 114.125C210.99 113.104 209 111.635 207.312 109.719C205.625 107.802 204.312 105.479 203.375 102.75C202.458 100.021 202 96.9375 202 93.5V91C202 87.5625 202.458 84.4896 203.375 81.7812C204.292 79.0521 205.583 76.7292 207.25 74.8125C208.938 72.875 210.927 71.4062 213.219 70.4062C215.531 69.3854 218.083 68.875 220.875 68.875C223.688 68.875 226.25 69.3854 228.562 70.4062C230.875 71.4062 232.865 72.875 234.531 74.8125C236.198 76.7292 237.479 79.0521 238.375 81.7812C239.292 84.4896 239.75 87.5625 239.75 91ZM231.906 93.5V90.9375C231.906 88.3958 231.656 86.1562 231.156 84.2188C230.677 82.2604 229.958 80.625 229 79.3125C228.062 77.9792 226.906 76.9792 225.531 76.3125C224.156 75.625 222.604 75.2812 220.875 75.2812C219.146 75.2812 217.604 75.625 216.25 76.3125C214.896 76.9792 213.74 77.9792 212.781 79.3125C211.844 80.625 211.125 82.2604 210.625 84.2188C210.125 86.1562 209.875 88.3958 209.875 90.9375V93.5C209.875 96.0417 210.125 98.2917 210.625 100.25C211.125 102.208 211.854 103.865 212.812 105.219C213.792 106.552 214.958 107.562 216.312 108.25C217.667 108.917 219.208 109.25 220.938 109.25C222.688 109.25 224.24 108.917 225.594 108.25C226.948 107.562 228.094 106.552 229.031 105.219C229.969 103.865 230.677 102.208 231.156 100.25C231.656 98.2917 231.906 96.0417 231.906 93.5Z" fill="url(#paint9_linear_1604_463)"/>
<path d="M550.469 115.625C547.969 115.625 545.708 115.219 543.688 114.406C541.688 113.573 539.979 112.417 538.562 110.938C537.167 109.458 536.094 107.719 535.344 105.719C534.594 103.719 534.219 101.562 534.219 99.25V98C534.219 95.3542 534.604 92.9583 535.375 90.8125C536.146 88.6667 537.219 86.8333 538.594 85.3125C539.969 83.7708 541.594 82.5938 543.469 81.7812C545.344 80.9688 547.375 80.5625 549.562 80.5625C551.979 80.5625 554.094 80.9688 555.906 81.7812C557.719 82.5938 559.219 83.7396 560.406 85.2188C561.615 86.6771 562.51 88.4167 563.094 90.4375C563.698 92.4583 564 94.6875 564 97.125V100.344H537.875V94.9375H556.562V94.3438C556.521 92.9896 556.25 91.7188 555.75 90.5312C555.271 89.3438 554.531 88.3854 553.531 87.6562C552.531 86.9271 551.198 86.5625 549.531 86.5625C548.281 86.5625 547.167 86.8333 546.188 87.375C545.229 87.8958 544.427 88.6562 543.781 89.6562C543.135 90.6562 542.635 91.8646 542.281 93.2812C541.948 94.6771 541.781 96.25 541.781 98V99.25C541.781 100.729 541.979 102.104 542.375 103.375C542.792 104.625 543.396 105.719 544.188 106.656C544.979 107.594 545.938 108.333 547.062 108.875C548.188 109.396 549.469 109.656 550.906 109.656C552.719 109.656 554.333 109.292 555.75 108.562C557.167 107.833 558.396 106.802 559.438 105.469L563.406 109.312C562.677 110.375 561.729 111.396 560.562 112.375C559.396 113.333 557.969 114.115 556.281 114.719C554.615 115.323 552.677 115.625 550.469 115.625Z" fill="url(#paint10_linear_1604_463)"/>
<path d="M529.75 81.1875V86.6875H510.688V81.1875H529.75ZM516.188 72.9062H523.719V105.656C523.719 106.698 523.865 107.5 524.156 108.062C524.469 108.604 524.896 108.969 525.438 109.156C525.979 109.344 526.615 109.438 527.344 109.438C527.865 109.438 528.365 109.406 528.844 109.344C529.323 109.281 529.708 109.219 530 109.156L530.031 114.906C529.406 115.094 528.677 115.26 527.844 115.406C527.031 115.552 526.094 115.625 525.031 115.625C523.302 115.625 521.771 115.323 520.438 114.719C519.104 114.094 518.062 113.083 517.312 111.688C516.562 110.292 516.188 108.438 516.188 106.125V72.9062Z" fill="url(#paint11_linear_1604_463)"/>
<path d="M506 81.1875V115H498.438V81.1875H506ZM497.938 72.3125C497.938 71.1667 498.312 70.2188 499.062 69.4688C499.833 68.6979 500.896 68.3125 502.25 68.3125C503.583 68.3125 504.635 68.6979 505.406 69.4688C506.177 70.2188 506.562 71.1667 506.562 72.3125C506.562 73.4375 506.177 74.375 505.406 75.125C504.635 75.875 503.583 76.25 502.25 76.25C500.896 76.25 499.833 75.875 499.062 75.125C498.312 74.375 497.938 73.4375 497.938 72.3125Z" fill="url(#paint12_linear_1604_463)"/>
<path d="M489.688 67V115H482.125V67H489.688Z" fill="url(#paint13_linear_1604_463)"/>
<path d="M475.969 108.781V115H451.812V108.781H475.969ZM454.031 69.5V115H446.188V69.5H454.031ZM472.812 88.5V94.625H451.812V88.5H472.812ZM475.812 69.5V75.75H451.812V69.5H475.812Z" fill="url(#paint14_linear_1604_463)"/>
<path d="M543.545 154.8V181.375H536.019V147.586H543.108L543.545 154.8ZM542.203 163.232L539.767 163.2C539.788 160.806 540.121 158.61 540.766 156.611C541.432 154.613 542.348 152.895 543.514 151.459C544.701 150.022 546.117 148.919 547.761 148.148C549.406 147.357 551.238 146.962 553.257 146.962C554.881 146.962 556.349 147.191 557.661 147.649C558.993 148.086 560.128 148.804 561.065 149.803C562.022 150.803 562.751 152.104 563.251 153.707C563.75 155.289 564 157.236 564 159.547V181.375H556.443V159.516C556.443 157.892 556.203 156.611 555.724 155.674C555.266 154.717 554.59 154.04 553.695 153.645C552.82 153.228 551.727 153.02 550.416 153.02C549.125 153.02 547.969 153.291 546.949 153.832C545.929 154.373 545.065 155.112 544.357 156.049C543.67 156.986 543.139 158.069 542.765 159.297C542.39 160.525 542.203 161.837 542.203 163.232Z" fill="url(#paint15_linear_1604_463)"/>
<path d="M498.358 164.856V164.137C498.358 161.702 498.712 159.443 499.42 157.361C500.127 155.258 501.148 153.436 502.48 151.896C503.833 150.334 505.478 149.127 507.414 148.273C509.371 147.399 511.578 146.962 514.034 146.962C516.512 146.962 518.719 147.399 520.655 148.273C522.612 149.127 524.267 150.334 525.62 151.896C526.973 153.436 528.004 155.258 528.712 157.361C529.42 159.443 529.774 161.702 529.774 164.137V164.856C529.774 167.291 529.42 169.55 528.712 171.632C528.004 173.714 526.973 175.536 525.62 177.097C524.267 178.638 522.622 179.845 520.686 180.72C518.75 181.573 516.554 182 514.097 182C511.619 182 509.402 181.573 507.445 180.72C505.509 179.845 503.864 178.638 502.511 177.097C501.158 175.536 500.127 173.714 499.42 171.632C498.712 169.55 498.358 167.291 498.358 164.856ZM505.884 164.137V164.856C505.884 166.375 506.04 167.812 506.352 169.165C506.665 170.518 507.154 171.705 507.82 172.725C508.486 173.745 509.34 174.547 510.381 175.13C511.422 175.713 512.66 176.004 514.097 176.004C515.492 176.004 516.699 175.713 517.719 175.13C518.76 174.547 519.614 173.745 520.28 172.725C520.946 171.705 521.436 170.518 521.748 169.165C522.081 167.812 522.248 166.375 522.248 164.856V164.137C522.248 162.638 522.081 161.223 521.748 159.89C521.436 158.537 520.936 157.34 520.249 156.299C519.583 155.258 518.729 154.446 517.688 153.863C516.668 153.259 515.45 152.958 514.034 152.958C512.619 152.958 511.39 153.259 510.35 153.863C509.329 154.446 508.486 155.258 507.82 156.299C507.154 157.34 506.665 158.537 506.352 159.89C506.04 161.223 505.884 162.638 505.884 164.137Z" fill="url(#paint16_linear_1604_463)"/>
<path d="M491.55 147.586V181.375H483.993V147.586H491.55ZM483.493 138.717C483.493 137.572 483.868 136.625 484.617 135.876C485.388 135.105 486.449 134.72 487.803 134.72C489.135 134.72 490.186 135.105 490.957 135.876C491.727 136.625 492.112 137.572 492.112 138.717C492.112 139.842 491.727 140.778 490.957 141.528C490.186 142.277 489.135 142.652 487.803 142.652C486.449 142.652 485.388 142.277 484.617 141.528C483.868 140.778 483.493 139.842 483.493 138.717Z" fill="url(#paint17_linear_1604_463)"/>
<path d="M477.685 147.586V153.082H458.635V147.586H477.685ZM464.131 139.311H471.658V172.038C471.658 173.079 471.803 173.881 472.095 174.443C472.407 174.984 472.834 175.348 473.375 175.536C473.916 175.723 474.551 175.817 475.28 175.817C475.8 175.817 476.3 175.786 476.779 175.723C477.258 175.661 477.643 175.598 477.934 175.536L477.966 181.282C477.341 181.469 476.612 181.636 475.78 181.781C474.968 181.927 474.031 182 472.969 182C471.241 182 469.711 181.698 468.379 181.094C467.046 180.47 466.005 179.46 465.256 178.065C464.506 176.67 464.131 174.817 464.131 172.507V139.311Z" fill="url(#paint18_linear_1604_463)"/>
<path d="M442.584 176.004C443.812 176.004 444.916 175.765 445.894 175.286C446.893 174.786 447.695 174.099 448.299 173.225C448.923 172.35 449.267 171.341 449.329 170.196H456.418C456.376 172.382 455.731 174.37 454.482 176.16C453.233 177.951 451.578 179.377 449.517 180.439C447.455 181.48 445.176 182 442.678 182C440.096 182 437.848 181.563 435.932 180.688C434.017 179.793 432.424 178.565 431.154 177.003C429.884 175.442 428.927 173.641 428.281 171.601C427.657 169.561 427.344 167.375 427.344 165.043V163.95C427.344 161.618 427.657 159.432 428.281 157.392C428.927 155.331 429.884 153.52 431.154 151.958C432.424 150.397 434.017 149.179 435.932 148.305C437.848 147.409 440.086 146.962 442.646 146.962C445.353 146.962 447.726 147.503 449.766 148.586C451.807 149.647 453.41 151.136 454.576 153.051C455.762 154.946 456.376 157.153 456.418 159.672H449.329C449.267 158.423 448.954 157.298 448.392 156.299C447.851 155.279 447.081 154.467 446.081 153.863C445.103 153.259 443.927 152.958 442.553 152.958C441.033 152.958 439.773 153.27 438.774 153.894C437.775 154.498 436.994 155.331 436.432 156.393C435.87 157.434 435.464 158.61 435.214 159.921C434.985 161.212 434.87 162.555 434.87 163.95V165.043C434.87 166.438 434.985 167.791 435.214 169.103C435.443 170.414 435.839 171.591 436.401 172.631C436.984 173.652 437.775 174.474 438.774 175.099C439.773 175.702 441.043 176.004 442.584 176.004Z" fill="url(#paint19_linear_1604_463)"/>
<path d="M413.51 173.412V147.586H421.067V181.375H413.947L413.51 173.412ZM414.572 166.386L417.101 166.323C417.101 168.593 416.852 170.685 416.352 172.6C415.852 174.495 415.082 176.15 414.041 177.566C413 178.96 411.668 180.053 410.044 180.845C408.42 181.615 406.473 182 404.204 182C402.559 182 401.05 181.761 399.676 181.282C398.302 180.803 397.115 180.064 396.116 179.065C395.137 178.065 394.378 176.764 393.836 175.161C393.295 173.558 393.024 171.643 393.024 169.415V147.586H400.55V169.477C400.55 170.706 400.696 171.736 400.988 172.569C401.279 173.381 401.675 174.037 402.174 174.536C402.674 175.036 403.257 175.39 403.923 175.598C404.589 175.806 405.297 175.91 406.047 175.91C408.191 175.91 409.877 175.494 411.106 174.661C412.355 173.808 413.24 172.663 413.76 171.226C414.301 169.79 414.572 168.176 414.572 166.386Z" fill="url(#paint20_linear_1604_463)"/>
<path d="M378.128 154.019V181.375H370.602V147.586H377.785L378.128 154.019ZM388.465 147.368L388.403 154.363C387.944 154.28 387.445 154.217 386.904 154.175C386.383 154.134 385.863 154.113 385.342 154.113C384.051 154.113 382.917 154.3 381.938 154.675C380.96 155.029 380.137 155.55 379.471 156.237C378.826 156.903 378.326 157.715 377.972 158.672C377.618 159.63 377.41 160.702 377.348 161.889L375.63 162.014C375.63 159.89 375.838 157.923 376.255 156.112C376.671 154.3 377.296 152.708 378.128 151.334C378.982 149.96 380.044 148.887 381.314 148.117C382.604 147.347 384.093 146.962 385.779 146.962C386.237 146.962 386.727 147.003 387.247 147.087C387.788 147.17 388.194 147.264 388.465 147.368Z" fill="url(#paint21_linear_1604_463)"/>
<path d="M364.763 147.586V153.082H345.713V147.586H364.763ZM351.209 139.311H358.736V172.038C358.736 173.079 358.881 173.881 359.173 174.443C359.485 174.984 359.912 175.348 360.453 175.536C360.994 175.723 361.629 175.817 362.358 175.817C362.878 175.817 363.378 175.786 363.857 175.723C364.336 175.661 364.721 175.598 365.012 175.536L365.044 181.282C364.419 181.469 363.69 181.636 362.858 181.781C362.046 181.927 361.109 182 360.047 182C358.319 182 356.789 181.698 355.457 181.094C354.124 180.47 353.083 179.46 352.334 178.065C351.584 176.67 351.209 174.817 351.209 172.507V139.311Z" fill="url(#paint22_linear_1604_463)"/>
<path d="M335.314 172.225C335.314 171.476 335.127 170.799 334.752 170.196C334.377 169.571 333.659 169.009 332.597 168.509C331.556 168.01 330.016 167.552 327.976 167.135C326.185 166.74 324.54 166.271 323.041 165.73C321.563 165.168 320.293 164.491 319.232 163.7C318.17 162.909 317.347 161.972 316.764 160.89C316.182 159.807 315.89 158.558 315.89 157.142C315.89 155.768 316.192 154.467 316.796 153.239C317.399 152.01 318.263 150.928 319.388 149.991C320.512 149.054 321.876 148.315 323.479 147.774C325.102 147.232 326.914 146.962 328.912 146.962C331.744 146.962 334.169 147.441 336.189 148.398C338.229 149.335 339.79 150.615 340.873 152.239C341.955 153.842 342.497 155.654 342.497 157.673H334.971C334.971 156.778 334.742 155.945 334.284 155.175C333.846 154.384 333.18 153.749 332.285 153.27C331.39 152.77 330.266 152.52 328.912 152.52C327.622 152.52 326.549 152.729 325.696 153.145C324.863 153.54 324.238 154.061 323.822 154.706C323.427 155.352 323.229 156.06 323.229 156.83C323.229 157.392 323.333 157.902 323.541 158.36C323.77 158.797 324.145 159.203 324.665 159.578C325.186 159.932 325.894 160.265 326.789 160.577C327.705 160.89 328.85 161.191 330.224 161.483C332.806 162.024 335.023 162.722 336.876 163.575C338.749 164.408 340.186 165.491 341.185 166.823C342.184 168.135 342.684 169.8 342.684 171.82C342.684 173.318 342.361 174.693 341.716 175.942C341.091 177.17 340.175 178.242 338.968 179.158C337.76 180.053 336.314 180.751 334.627 181.251C332.962 181.75 331.088 182 329.006 182C325.946 182 323.354 181.459 321.23 180.376C319.107 179.273 317.493 177.867 316.39 176.16C315.307 174.432 314.766 172.642 314.766 170.789H322.042C322.125 172.184 322.511 173.298 323.198 174.13C323.905 174.942 324.78 175.536 325.821 175.91C326.883 176.264 327.976 176.441 329.1 176.441C330.453 176.441 331.588 176.264 332.504 175.91C333.42 175.536 334.117 175.036 334.596 174.411C335.075 173.766 335.314 173.037 335.314 172.225Z" fill="url(#paint23_linear_1604_463)"/>
<path d="M288.222 154.8V181.375H280.696V147.586H287.785L288.222 154.8ZM286.879 163.232L284.443 163.2C284.464 160.806 284.797 158.61 285.442 156.611C286.109 154.613 287.025 152.895 288.19 151.459C289.377 150.022 290.793 148.919 292.438 148.148C294.082 147.357 295.914 146.962 297.934 146.962C299.558 146.962 301.025 147.191 302.337 147.649C303.669 148.086 304.804 148.804 305.741 149.803C306.699 150.803 307.427 152.104 307.927 153.707C308.427 155.289 308.676 157.236 308.676 159.547V181.375H301.119V159.516C301.119 157.892 300.88 156.611 300.401 155.674C299.943 154.717 299.266 154.04 298.371 153.645C297.497 153.228 296.404 153.02 295.092 153.02C293.801 153.02 292.646 153.291 291.626 153.832C290.605 154.373 289.741 155.112 289.034 156.049C288.347 156.986 287.816 158.069 287.441 159.297C287.066 160.525 286.879 161.837 286.879 163.232Z" fill="url(#paint24_linear_1604_463)"/>
<path d="M243.034 164.856V164.137C243.034 161.702 243.388 159.443 244.096 157.361C244.804 155.258 245.824 153.436 247.156 151.896C248.51 150.334 250.154 149.127 252.09 148.273C254.047 147.399 256.254 146.962 258.711 146.962C261.188 146.962 263.395 147.399 265.331 148.273C267.288 149.127 268.943 150.334 270.297 151.896C271.65 153.436 272.68 155.258 273.388 157.361C274.096 159.443 274.45 161.702 274.45 164.137V164.856C274.45 167.291 274.096 169.55 273.388 171.632C272.68 173.714 271.65 175.536 270.297 177.097C268.943 178.638 267.299 179.845 265.362 180.72C263.426 181.573 261.23 182 258.773 182C256.296 182 254.079 181.573 252.122 180.72C250.185 179.845 248.541 178.638 247.188 177.097C245.834 175.536 244.804 173.714 244.096 171.632C243.388 169.55 243.034 167.291 243.034 164.856ZM250.56 164.137V164.856C250.56 166.375 250.716 167.812 251.029 169.165C251.341 170.518 251.83 171.705 252.496 172.725C253.163 173.745 254.016 174.547 255.057 175.13C256.098 175.713 257.337 176.004 258.773 176.004C260.168 176.004 261.376 175.713 262.396 175.13C263.437 174.547 264.29 173.745 264.957 172.725C265.623 171.705 266.112 170.518 266.424 169.165C266.757 167.812 266.924 166.375 266.924 164.856V164.137C266.924 162.638 266.757 161.223 266.424 159.89C266.112 158.537 265.612 157.34 264.925 156.299C264.259 155.258 263.406 154.446 262.365 153.863C261.344 153.259 260.127 152.958 258.711 152.958C257.295 152.958 256.067 153.259 255.026 153.863C254.006 154.446 253.163 155.258 252.496 156.299C251.83 157.34 251.341 158.537 251.029 159.89C250.716 161.223 250.56 162.638 250.56 164.137Z" fill="url(#paint25_linear_1604_463)"/>
<path d="M230.293 166.573H238.1C237.85 169.55 237.017 172.205 235.602 174.536C234.186 176.847 232.198 178.669 229.637 180.001C227.076 181.334 223.964 182 220.3 182C217.489 182 214.96 181.5 212.711 180.501C210.463 179.481 208.537 178.044 206.934 176.192C205.331 174.318 204.103 172.059 203.249 169.415C202.416 166.771 202 163.815 202 160.546V156.767C202 153.499 202.427 150.543 203.28 147.899C204.155 145.255 205.404 142.996 207.028 141.122C208.652 139.227 210.598 137.781 212.867 136.781C215.158 135.782 217.729 135.282 220.581 135.282C224.203 135.282 227.264 135.948 229.762 137.281C232.26 138.613 234.197 140.456 235.571 142.808C236.965 145.161 237.819 147.857 238.131 150.896H230.324C230.116 148.939 229.658 147.264 228.95 145.869C228.263 144.474 227.243 143.412 225.89 142.683C224.537 141.934 222.767 141.559 220.581 141.559C218.79 141.559 217.229 141.892 215.897 142.558C214.564 143.225 213.45 144.203 212.555 145.494C211.66 146.785 210.983 148.377 210.525 150.272C210.088 152.146 209.87 154.29 209.87 156.705V160.546C209.87 162.836 210.067 164.918 210.463 166.792C210.879 168.645 211.504 170.237 212.337 171.57C213.19 172.902 214.273 173.933 215.584 174.661C216.896 175.39 218.468 175.754 220.3 175.754C222.527 175.754 224.328 175.4 225.702 174.693C227.097 173.985 228.149 172.954 228.856 171.601C229.585 170.227 230.064 168.551 230.293 166.573Z" fill="url(#paint26_linear_1604_463)"/>
<defs>
<linearGradient id="paint0_linear_1604_463" x1="19.6514" y1="164.937" x2="195.494" y2="163.936" gradientUnits="userSpaceOnUse">
<stop stop-color="#856220"/>
<stop offset="0.275" stop-color="#F4E683"/>
<stop offset="0.5" stop-color="#BF923D"/>
<stop offset="1" stop-color="#4E341B"/>
</linearGradient>
<linearGradient id="paint1_linear_1604_463" x1="19.6514" y1="164.937" x2="195.494" y2="163.936" gradientUnits="userSpaceOnUse">
<stop stop-color="#856220"/>
<stop offset="0.275" stop-color="#F4E683"/>
<stop offset="0.5" stop-color="#BF923D"/>
<stop offset="1" stop-color="#4E341B"/>
</linearGradient>
<linearGradient id="paint2_linear_1604_463" x1="19.6514" y1="164.937" x2="195.494" y2="163.936" gradientUnits="userSpaceOnUse">
<stop stop-color="#856220"/>
<stop offset="0.275" stop-color="#F4E683"/>
<stop offset="0.5" stop-color="#BF923D"/>
<stop offset="1" stop-color="#4E341B"/>
</linearGradient>
<linearGradient id="paint3_linear_1604_463" x1="19.6515" y1="164.937" x2="195.494" y2="163.936" gradientUnits="userSpaceOnUse">
<stop stop-color="#856220"/>
<stop offset="0.275" stop-color="#F4E683"/>
<stop offset="0.5" stop-color="#BF923D"/>
<stop offset="1" stop-color="#4E341B"/>
</linearGradient>
<linearGradient id="paint4_linear_1604_463" x1="213.5" y1="147.5" x2="321.964" y2="325.974" gradientUnits="userSpaceOnUse">
<stop stop-color="#856220"/>
<stop offset="0.275" stop-color="#F4E683"/>
<stop offset="0.5" stop-color="#BF923D"/>
<stop offset="0.75" stop-color="#4E341B"/>
<stop offset="1" stop-color="#F1EA82"/>
</linearGradient>
<linearGradient id="paint5_linear_1604_463" x1="213.5" y1="147.5" x2="321.964" y2="325.974" gradientUnits="userSpaceOnUse">
<stop stop-color="#856220"/>
<stop offset="0.275" stop-color="#F4E683"/>
<stop offset="0.5" stop-color="#BF923D"/>
<stop offset="0.75" stop-color="#4E341B"/>
<stop offset="1" stop-color="#F1EA82"/>
</linearGradient>
<linearGradient id="paint6_linear_1604_463" x1="213.5" y1="147.5" x2="321.964" y2="325.974" gradientUnits="userSpaceOnUse">
<stop stop-color="#856220"/>
<stop offset="0.275" stop-color="#F4E683"/>
<stop offset="0.5" stop-color="#BF923D"/>
<stop offset="0.75" stop-color="#4E341B"/>
<stop offset="1" stop-color="#F1EA82"/>
</linearGradient>
<linearGradient id="paint7_linear_1604_463" x1="213.5" y1="147.5" x2="321.964" y2="325.974" gradientUnits="userSpaceOnUse">
<stop stop-color="#856220"/>
<stop offset="0.275" stop-color="#F4E683"/>
<stop offset="0.5" stop-color="#BF923D"/>
<stop offset="0.75" stop-color="#4E341B"/>
<stop offset="1" stop-color="#F1EA82"/>
</linearGradient>
<linearGradient id="paint8_linear_1604_463" x1="213.5" y1="147.5" x2="321.964" y2="325.974" gradientUnits="userSpaceOnUse">
<stop stop-color="#856220"/>
<stop offset="0.275" stop-color="#F4E683"/>
<stop offset="0.5" stop-color="#BF923D"/>
<stop offset="0.75" stop-color="#4E341B"/>
<stop offset="1" stop-color="#F1EA82"/>
</linearGradient>
<linearGradient id="paint9_linear_1604_463" x1="213.5" y1="147.5" x2="321.964" y2="325.974" gradientUnits="userSpaceOnUse">
<stop stop-color="#856220"/>
<stop offset="0.275" stop-color="#F4E683"/>
<stop offset="0.5" stop-color="#BF923D"/>
<stop offset="0.75" stop-color="#4E341B"/>
<stop offset="1" stop-color="#F1EA82"/>
</linearGradient>
<linearGradient id="paint10_linear_1604_463" x1="213.5" y1="147.5" x2="321.964" y2="325.974" gradientUnits="userSpaceOnUse">
<stop stop-color="#856220"/>
<stop offset="0.275" stop-color="#F4E683"/>
<stop offset="0.5" stop-color="#BF923D"/>
<stop offset="0.75" stop-color="#4E341B"/>
<stop offset="1" stop-color="#F1EA82"/>
</linearGradient>
<linearGradient id="paint11_linear_1604_463" x1="213.5" y1="147.5" x2="321.964" y2="325.974" gradientUnits="userSpaceOnUse">
<stop stop-color="#856220"/>
<stop offset="0.275" stop-color="#F4E683"/>
<stop offset="0.5" stop-color="#BF923D"/>
<stop offset="0.75" stop-color="#4E341B"/>
<stop offset="1" stop-color="#F1EA82"/>
</linearGradient>
<linearGradient id="paint12_linear_1604_463" x1="213.5" y1="147.5" x2="321.964" y2="325.974" gradientUnits="userSpaceOnUse">
<stop stop-color="#856220"/>
<stop offset="0.275" stop-color="#F4E683"/>
<stop offset="0.5" stop-color="#BF923D"/>
<stop offset="0.75" stop-color="#4E341B"/>
<stop offset="1" stop-color="#F1EA82"/>
</linearGradient>
<linearGradient id="paint13_linear_1604_463" x1="213.5" y1="147.5" x2="321.964" y2="325.974" gradientUnits="userSpaceOnUse">
<stop stop-color="#856220"/>
<stop offset="0.275" stop-color="#F4E683"/>
<stop offset="0.5" stop-color="#BF923D"/>
<stop offset="0.75" stop-color="#4E341B"/>
<stop offset="1" stop-color="#F1EA82"/>
</linearGradient>
<linearGradient id="paint14_linear_1604_463" x1="213.5" y1="147.5" x2="321.964" y2="325.974" gradientUnits="userSpaceOnUse">
<stop stop-color="#856220"/>
<stop offset="0.275" stop-color="#F4E683"/>
<stop offset="0.5" stop-color="#BF923D"/>
<stop offset="0.75" stop-color="#4E341B"/>
<stop offset="1" stop-color="#F1EA82"/>
</linearGradient>
<linearGradient id="paint15_linear_1604_463" x1="213.5" y1="147.5" x2="321.964" y2="325.974" gradientUnits="userSpaceOnUse">
<stop stop-color="#856220"/>
<stop offset="0.275" stop-color="#F4E683"/>
<stop offset="0.5" stop-color="#BF923D"/>
<stop offset="0.75" stop-color="#4E341B"/>
<stop offset="1" stop-color="#F1EA82"/>
</linearGradient>
<linearGradient id="paint16_linear_1604_463" x1="213.5" y1="147.5" x2="321.964" y2="325.974" gradientUnits="userSpaceOnUse">
<stop stop-color="#856220"/>
<stop offset="0.275" stop-color="#F4E683"/>
<stop offset="0.5" stop-color="#BF923D"/>
<stop offset="0.75" stop-color="#4E341B"/>
<stop offset="1" stop-color="#F1EA82"/>
</linearGradient>
<linearGradient id="paint17_linear_1604_463" x1="213.5" y1="147.5" x2="321.964" y2="325.974" gradientUnits="userSpaceOnUse">
<stop stop-color="#856220"/>
<stop offset="0.275" stop-color="#F4E683"/>
<stop offset="0.5" stop-color="#BF923D"/>
<stop offset="0.75" stop-color="#4E341B"/>
<stop offset="1" stop-color="#F1EA82"/>
</linearGradient>
<linearGradient id="paint18_linear_1604_463" x1="213.5" y1="147.5" x2="321.964" y2="325.974" gradientUnits="userSpaceOnUse">
<stop stop-color="#856220"/>
<stop offset="0.275" stop-color="#F4E683"/>
<stop offset="0.5" stop-color="#BF923D"/>
<stop offset="0.75" stop-color="#4E341B"/>
<stop offset="1" stop-color="#F1EA82"/>
</linearGradient>
<linearGradient id="paint19_linear_1604_463" x1="213.5" y1="147.5" x2="321.964" y2="325.974" gradientUnits="userSpaceOnUse">
<stop stop-color="#856220"/>
<stop offset="0.275" stop-color="#F4E683"/>
<stop offset="0.5" stop-color="#BF923D"/>
<stop offset="0.75" stop-color="#4E341B"/>
<stop offset="1" stop-color="#F1EA82"/>
</linearGradient>
<linearGradient id="paint20_linear_1604_463" x1="213.5" y1="147.5" x2="321.964" y2="325.974" gradientUnits="userSpaceOnUse">
<stop stop-color="#856220"/>
<stop offset="0.275" stop-color="#F4E683"/>
<stop offset="0.5" stop-color="#BF923D"/>
<stop offset="0.75" stop-color="#4E341B"/>
<stop offset="1" stop-color="#F1EA82"/>
</linearGradient>
<linearGradient id="paint21_linear_1604_463" x1="213.5" y1="147.5" x2="321.964" y2="325.974" gradientUnits="userSpaceOnUse">
<stop stop-color="#856220"/>
<stop offset="0.275" stop-color="#F4E683"/>
<stop offset="0.5" stop-color="#BF923D"/>
<stop offset="0.75" stop-color="#4E341B"/>
<stop offset="1" stop-color="#F1EA82"/>
</linearGradient>
<linearGradient id="paint22_linear_1604_463" x1="213.5" y1="147.5" x2="321.964" y2="325.974" gradientUnits="userSpaceOnUse">
<stop stop-color="#856220"/>
<stop offset="0.275" stop-color="#F4E683"/>
<stop offset="0.5" stop-color="#BF923D"/>
<stop offset="0.75" stop-color="#4E341B"/>
<stop offset="1" stop-color="#F1EA82"/>
</linearGradient>
<linearGradient id="paint23_linear_1604_463" x1="213.5" y1="147.5" x2="321.964" y2="325.974" gradientUnits="userSpaceOnUse">
<stop stop-color="#856220"/>
<stop offset="0.275" stop-color="#F4E683"/>
<stop offset="0.5" stop-color="#BF923D"/>
<stop offset="0.75" stop-color="#4E341B"/>
<stop offset="1" stop-color="#F1EA82"/>
</linearGradient>
<linearGradient id="paint24_linear_1604_463" x1="213.5" y1="147.5" x2="321.964" y2="325.974" gradientUnits="userSpaceOnUse">
<stop stop-color="#856220"/>
<stop offset="0.275" stop-color="#F4E683"/>
<stop offset="0.5" stop-color="#BF923D"/>
<stop offset="0.75" stop-color="#4E341B"/>
<stop offset="1" stop-color="#F1EA82"/>
</linearGradient>
<linearGradient id="paint25_linear_1604_463" x1="213.5" y1="147.5" x2="321.964" y2="325.974" gradientUnits="userSpaceOnUse">
<stop stop-color="#856220"/>
<stop offset="0.275" stop-color="#F4E683"/>
<stop offset="0.5" stop-color="#BF923D"/>
<stop offset="0.75" stop-color="#4E341B"/>
<stop offset="1" stop-color="#F1EA82"/>
</linearGradient>
<linearGradient id="paint26_linear_1604_463" x1="213.5" y1="147.5" x2="321.964" y2="325.974" gradientUnits="userSpaceOnUse">
<stop stop-color="#856220"/>
<stop offset="0.275" stop-color="#F4E683"/>
<stop offset="0.5" stop-color="#BF923D"/>
<stop offset="0.75" stop-color="#4E341B"/>
<stop offset="1" stop-color="#F1EA82"/>
</linearGradient>
<clipPath id="clip0_1604_463">
<rect width="181" height="182" fill="white"/>
</clipPath>
</defs>
</svg>
